<svg xmlns="http://www.w3.org/2000/svg" viewBox="0 0 120 150" role="img" aria-label="Pionek 3D">
  <defs>
    <radialGradient id="head" cx="34%" cy="24%" r="70%">
      <stop offset="0" stop-color="#ffdc8a"/>
      <stop offset=".18" stop-color="#f06a42"/>
      <stop offset=".62" stop-color="#ba2419"/>
      <stop offset="1" stop-color="#64180f"/>
    </radialGradient>
    <linearGradient id="body" x1="20" x2="96" y1="42" y2="124" gradientUnits="userSpaceOnUse">
      <stop offset="0" stop-color="#f58b54"/>
      <stop offset=".28" stop-color="#d33b24"/>
      <stop offset=".72" stop-color="#8d1d12"/>
      <stop offset="1" stop-color="#4a120c"/>
    </linearGradient>
    <radialGradient id="base" cx="38%" cy="20%" r="82%">
      <stop offset="0" stop-color="#ffbf6e"/>
      <stop offset=".35" stop-color="#c93622"/>
      <stop offset="1" stop-color="#5c160e"/>
    </radialGradient>
    <linearGradient id="rim" x1="22" x2="98" y1="106" y2="137" gradientUnits="userSpaceOnUse">
      <stop offset="0" stop-color="#ffd083"/>
      <stop offset=".18" stop-color="#c73a22"/>
      <stop offset=".75" stop-color="#69170d"/>
      <stop offset="1" stop-color="#2c0d08"/>
    </linearGradient>
    <filter id="shadow" x="-20%" y="-20%" width="140%" height="150%">
      <feDropShadow dx="0" dy="7" stdDeviation="4" flood-color="#1f1008" flood-opacity=".55"/>
    </filter>
  </defs>

  <ellipse cx="60" cy="132" rx="42" ry="12" fill="#1f1008" opacity=".42"/>

  <g filter="url(#shadow)">
    <ellipse cx="60" cy="118" rx="42" ry="18" fill="url(#rim)" stroke="#35120b" stroke-width="5"/>
    <path
      d="M32 114c4-27 12-45 19-57h18c8 12 16 30 19 57-4 9-52 9-56 0z"
      fill="url(#body)"
      stroke="#35120b"
      stroke-width="5"
      stroke-linejoin="round"
    />
    <ellipse cx="60" cy="55" rx="19" ry="10" fill="#7e1b10" opacity=".5"/>
    <circle cx="60" cy="42" r="25" fill="url(#head)" stroke="#35120b" stroke-width="5"/>
    <ellipse cx="60" cy="118" rx="31" ry="10" fill="url(#base)" opacity=".92"/>
  </g>

  <path d="M42 51c-5 18-9 38-10 57" fill="none" stroke="#ffbb74" stroke-width="6" stroke-linecap="round" opacity=".45"/>
  <ellipse cx="49" cy="32" rx="9" ry="7" fill="#ffe2a4" opacity=".8"/>
  <path d="M41 121c11 5 32 6 47 0" fill="none" stroke="#ffc06c" stroke-width="5" stroke-linecap="round" opacity=".55"/>
</svg>
